<?xml version="1.0" encoding="utf-8"?>
<!-- Generator: Adobe Illustrator 24.0.1, SVG Export Plug-In . SVG Version: 6.00 Build 0)  -->
<svg version="1.1" id="Layer_1" xmlns="http://www.w3.org/2000/svg" xmlns:xlink="http://www.w3.org/1999/xlink" x="0px" y="0px"
	 viewBox="0 0 124.7 100.9" style="enable-background:new 0 0 124.7 100.9;" xml:space="preserve">
<style type="text/css">
	.st0{fill:#9BC03C;}
</style>
<path class="st0" d="M113.5,0v45.1H109c-2-6.7-8.9-26.4-25.1-37C71.6,0,54.7,0,46,0c-2.3,0-1.1,20.7,8.9,32.4
	c11.6,13.6,21.4,14,21.4,14L66.4,46c0,0-15.2-13.1-30.3-12S0,42.8,0,49.8s21.4,18,38.4,17.1s25.5-11.4,27.6-12s10.6,0,10.6,0
	S59.4,62.6,52.9,75s-9.2,23.8-8.5,24.7c0.7,0.8,31,5,46.4-9S109.6,55,109.6,55h3.8v44.7h11.3V0H113.5z M38.6,57.9
	c-10.6,0-16.7-7.8-17.2-9.2s0.7-8.3,14.9-8.3s19.5,11.3,19.5,11.3C54.7,54.9,49.2,57.9,38.6,57.9z M71.3,34.7
	C63,24.4,63,10.8,63,10.8c5.5-2.1,14.5,2.1,21.6,9s12,21.1,10.8,23.9C94.2,46.4,79.5,45.1,71.3,34.7z M90.6,74.9
	c-8.1,20-26.4,14.5-28.7,13.8s-0.7-6.7,9.9-21.1s23.8-11.5,23.8-11.5C96,63.7,95.6,62.5,90.6,74.9z"/>
</svg>
